#!OML:ASF E:\VariousWalksJay\Project 1\Capture day 1\Session 1\Actor2.ASF
:FULLY-SPECIFIED
:DEGREES
1293
root -6.7347 15.8003 -11.3391 256.462 82.6778 -111.744
lowerback 10.7297 -0.519028 -3.90202
upperback 6.2935 -0.621874 -6.21775
thorax 0.549311 -0.117535 -4.22332
lowerneck -9.0019 3.0636 2.10782
upperneck 9.24049 2.84347 13.2916
head 4.10096 2.37449 3.93901
rclavicle 1.90833e-014 5.725e-014
rhumerus -19.8546 9.149 -38.8261
rradius 86.3781
rwrist -4.64644
rhand -5.9758 -0.924767
rfingers 7.12502
rthumb 19.8556 -29.9305
lclavicle 1.90833e-014 5.725e-014
lhumerus 21.989 -44.5962 36.5504
lradius 76.7939
lwrist 6.35189
lhand -25.0238 -25.3843
lfingers 7.12502
lthumb 1.48859 4.59027
rfemur -14.8661 -14.4299 -1.42925
rtibia 35.8665
rfoot -10.439 -21.1248
rtoes 0.417454
lfemur -29.8792 18.429 11.5426
ltibia 47.1528
lfoot -11.8208 -0.966701
ltoes -25.3302
1294
root -6.73282 15.8125 -11.3216 257.257 82.8491 -110.965
lowerback 10.6836 -0.460327 -3.8925
upperback 6.2749 -0.552243 -6.01361
thorax 0.558099 -0.0912601 -4.01928
lowerneck -8.96409 3.21264 2.1277
upperneck 8.9849 3.0986 12.8453
head 4.00702 2.45363 3.80268
rclavicle -4.77083e-015 2.8625e-014
rhumerus -20.2899 9.37494 -39.4803
rradius 86.5565
rwrist -4.10333
rhand -5.9099 -0.712869
rfingers 7.12502
rthumb 19.919 -29.712
lclavicle -4.77083e-015 2.8625e-014
lhumerus 20.8529 -44.355 37.9461
lradius 76.8695
lwrist 6.35411
lhand -24.7397 -25.6246
lfingers 7.12502
lthumb 1.76301 4.3479
rfemur -14.9883 -14.3834 -1.53032
rtibia 35.9141
rfoot -10.1673 -21.009
rtoes 0.146808
lfemur -29.6025 18.2534 11.5243
ltibia 46.8037
lfoot -11.6564 -0.842806
ltoes -25.2876
1295
root -6.73287 15.823 -11.3032 257.986 82.9533 -110.258
lowerback 10.6071 -0.437279 -3.64502
upperback 6.28252 -0.498975 -5.97595
thorax 0.606164 -0.0612612 -4.12437
lowerneck -8.9007 3.35683 2.4157
upperneck 8.68349 3.32165 12.4461
head 3.90357 2.53063 3.63506
rclavicle -1.59028e-014 -6.04305e-014
rhumerus -20.807 9.46846 -40.4526
rradius 86.6797
rwrist -3.52597
rhand -5.78772 -0.374113
rfingers 7.12502
rthumb 20.0364 -29.361
lclavicle -1.59028e-014 -6.04305e-014
lhumerus 19.9302 -44.1385 38.8745
lradius 77.0088
lwrist 6.45522
lhand -24.4042 -25.8725
lfingers 7.12502
lthumb 2.08696 4.09708
rfemur -15.1084 -14.3579 -1.55866
rtibia 35.9657
rfoot -9.91705 -20.8724
rtoes -0.236968
lfemur -29.3756 18.1074 11.5669
ltibia 46.4662
lfoot -11.4547 -0.747936
ltoes -25.32
1296
root -6.73283 15.8336 -11.2827 258.956 83.0905 -109.313
lowerback 10.5433 -0.417554 -3.58024
upperback 6.27189 -0.473683 -5.79878
thorax 0.629832 -0.0548963 -3.97581
lowerneck -8.81479 3.51022 2.43746
upperneck 8.41181 3.58209 12.0354
head 3.79874 2.6148 3.50895
rclavicle -3.02153e-014 -5.08889e-014
rhumerus -21.176 9.73177 -41.1884
rradius 86.7977
rwrist -2.99448
rhand -5.41522 -0.210413
rfingers 7.12502
rthumb 20.3944 -29.1595
lclavicle -3.02153e-014 -5.08889e-014
lhumerus 18.8077 -43.8201 40.1438
lradius 77.1308
lwrist 6.60935
lhand -24.0649 -26.1108
lfingers 7.12502
lthumb 2.41468 3.85531
rfemur -15.2349 -14.2741 -1.61161
rtibia 36.0043
rfoot -9.7939 -20.7223
rtoes -0.203714
lfemur -29.1298 18.0266 11.5835
ltibia 46.1316
lfoot -11.2426 -0.675452
ltoes -25.5025
1297
root -6.73348 15.8443 -11.2627 259.747 83.2837 -108.556
lowerback 10.4811 -0.374789 -3.49826
upperback 6.29037 -0.408235 -5.72128
thorax 0.68486 -0.0233499 -3.94662
lowerneck -8.77827 3.61664 2.69578
upperneck 8.12326 3.75166 11.6035
head 3.70915 2.66459 3.33525
rclavicle 4.77083e-015 -3.49861e-014
rhumerus -21.6345 9.88115 -42.0818
rradius 86.9488
rwrist -2.66976
rhand -5.28364 -0.317333
rfingers 7.12502
rthumb 20.5209 -29.2528
lclavicle 4.77083e-015 -3.49861e-014
lhumerus 18.0118 -43.5587 41.0254
lradius 77.2859
lwrist 6.751
lhand -23.7649 -26.3039
lfingers 7.12502
lthumb 2.70439 3.65872
rfemur -15.3631 -14.2737 -1.72903
rtibia 36.0405
rfoot -9.54058 -20.4781
rtoes -0.720348
lfemur -28.9197 17.9671 11.508
ltibia 45.8143
lfoot -11.0334 -0.606774
ltoes -25.5065
1298
root -6.73539 15.8544 -11.2442 260.289 83.5062 -108.043
lowerback 10.4306 -0.353373 -3.44218
upperback 6.3244 -0.372297 -5.63179
thorax 0.748871 -0.00710285 -3.88734
lowerneck -8.76345 3.71524 2.77875
upperneck 7.82588 3.92239 11.2649
head 3.61566 2.71485 3.21918
rclavicle 3.18055e-015 -2.54444e-014
rhumerus -22.0437 10.0099 -42.9141
rradius 87.045
rwrist -2.28332
rhand -5.08125 -0.278939
rfingers 7.12502
rthumb 20.7153 -29.1933
lclavicle 3.18055e-015 -2.54444e-014
lhumerus 17.251 -43.2671 41.8837
lradius 77.4584
lwrist 6.77373
lhand -23.5267 -26.3877
lfingers 7.12502
lthumb 2.93442 3.57183
rfemur -15.45 -14.1982 -1.89705
rtibia 36.0646
rfoot -9.50556 -20.353
rtoes -0.666681
lfemur -28.733 17.8815 11.3706
ltibia 45.5099
lfoot -10.8408 -0.509835
ltoes -25.2176
1299
root -6.73897 15.8628 -11.2238 260.951 83.7026 -107.418
lowerback 10.4161 -0.320467 -3.40594
upperback 6.31973 -0.331167 -5.50864
thorax 0.752944 0.00943278 -3.78175
lowerneck -8.70369 3.79024 2.80631
upperneck 7.56169 4.06449 10.9422
head 3.52511 2.75086 3.11514
rclavicle 6.36111e-015 4.77083e-014
rhumerus -22.4957 10.1952 -43.7258
rradius 87.1339
rwrist -1.91391
rhand -4.97573 -0.20005
rfingers 7.12502
rthumb 20.8167 -29.1033
lclavicle 6.36111e-015 4.77083e-014
lhumerus 16.4805 -42.9946 42.7946
lradius 77.5805
lwrist 6.65835
lhand -23.3412 -26.44
lfingers 7.12502
lthumb 3.11361 3.51705
rfemur -15.5728 -14.2587 -2.02702
rtibia 36.0952
rfoot -9.31192 -20.1693
rtoes -1.07337
lfemur -28.5846 17.8608 11.2486
ltibia 45.2299
lfoot -10.6363 -0.393979
ltoes -25.0014
1300
root -6.74351 15.8711 -11.2042 261.496 83.9811 -106.884
lowerback 10.4415 -0.265354 -3.45247
upperback 6.34126 -0.263896 -5.42149
thorax 0.764849 0.0395315 -3.67037
lowerneck -8.68566 3.85513 2.81201
upperneck 7.27338 4.19024 10.7032
head 3.43344 2.78432 3.04025
rclavicle 4.77083e-015 1.90833e-014
rhumerus -22.9272 10.3391 -44.5416
rradius 87.1597
rwrist -1.552
rhand -5.036 -0.131568
rfingers 7.12502
rthumb 20.7588 -29.0412
lclavicle 4.77083e-015 1.90833e-014
lhumerus 15.8285 -42.7488 43.6916
lradius 77.6832
lwrist 6.45374
lhand -23.2111 -26.4348
lfingers 7.12502
lthumb 3.2392 3.52034
rfemur -15.6611 -14.2734 -2.25931
rtibia 36.1237
rfoot -9.22354 -20.0184
rtoes -1.4456
lfemur -28.4231 17.7954 11.0189
ltibia 44.9727
lfoot -10.4781 -0.214613
ltoes -24.8036
1301
root -6.7493 15.879 -11.183 262.094 84.2131 -106.3
lowerback 10.4457 -0.213292 -3.40096
upperback 6.37325 -0.189802 -5.35765
thorax 0.798429 0.0762691 -3.63948
lowerneck -8.64256 3.90198 2.8251
upperneck 6.69663 4.32807 10.2259
head 3.58805 2.78511 3.20431
rclavicle 1.59028e-015 9.54166e-015
rhumerus -23.4221 10.43 -45.3686
rradius 87.1663
rwrist -1.1773
rhand -5.24202 0.151088
rfingers 7.12502
rthumb 20.5609 -28.7801
lclavicle 1.59028e-015 9.54166e-015
lhumerus 15.2872 -42.4865 44.346
lradius 77.8544
lwrist 6.2726
lhand -23.0619 -26.4005
lfingers 7.12502
lthumb 3.38337 3.55239
rfemur -15.7499 -14.2093 -2.42516
rtibia 36.1625
rfoot -9.25612 -19.9206
rtoes -1.49492
lfemur -28.2918 17.782 10.8299
ltibia 44.7395
lfoot -10.3236 -0.0349241
ltoes -24.7299
1302
root -6.75561 15.8834 -11.1627 262.664 84.3905 -105.753
lowerback 10.4637 -0.177366 -3.32243
upperback 6.37903 -0.140164 -5.27124
thorax 0.795509 0.100064 -3.59767
lowerneck -8.52636 3.96487 2.93341
upperneck 6.42535 4.44394 9.95353
head 3.47057 2.81663 3.07891
rclavicle 1.11319e-014 1.90833e-014
rhumerus -23.8359 10.5489 -46.201
rradius 87.0677
rwrist -0.772554
rhand -5.50741 0.429618
rfingers 7.12502
rthumb 20.3058 -28.5289
lclavicle 1.11319e-014 1.90833e-014
lhumerus 14.6884 -42.3183 45.0373
lradius 78.023
lwrist 6.04562
lhand -22.9925 -26.3182
lfingers 7.12502
lthumb 3.4503 3.63363
rfemur -15.8523 -14.2643 -2.53563
rtibia 36.2043
rfoot -9.27935 -19.77
rtoes -1.505
lfemur -28.1909 17.7459 10.6938
ltibia 44.5277
lfoot -10.1904 0.167707
ltoes -24.3097
1303
root -6.76223 15.8888 -11.1445 263.301 84.5913 -105.124
lowerback 10.5047 -0.0957085 -3.25027
upperback 6.4153 -0.0263162 -5.21092
thorax 0.814964 0.15788 -3.58627
lowerneck -8.50431 3.98808 3.15108
upperneck 6.1695 4.48804 9.65407
head 3.38384 2.81817 2.92659
rclavicle -9.54166e-015 -5.56597e-014
rhumerus -24.3003 10.5252 -47.0208
rradius 86.9499
rwrist -0.36849
rhand -5.82122 0.734501
rfingers 7.12502
rthumb 20.0042 -28.2558
lclavicle -9.54166e-015 -5.56597e-014
lhumerus 14.3319 -42.1511 45.5674
lradius 78.1688
lwrist 6.02637
lhand -22.8082 -26.3317
lfingers 7.12502
lthumb 3.62829 3.61714
rfemur -15.9539 -14.3513 -2.66765
rtibia 36.2469
rfoot -9.20753 -19.6629
rtoes -2.06352
lfemur -28.073 17.6721 10.5169
ltibia 44.331
lfoot -10.1107 0.420663
ltoes -24.0838
